<svg aria-hidden="true" style="position: absolute; width: 0; height: 0; overflow: hidden;" version="1.1" xmlns="http://www.w3.org/2000/svg" xmlns:xlink="http://www.w3.org/1999/xlink">
<defs>
<symbol id="icon-button-right" viewBox="0 0 32 32">
<path fill="#00af8f" style="fill: var(--color1, #00af8f)" d="M32 16c0 8.837-7.163 16-16 16s-16-7.163-16-16c0-8.837 7.163-16 16-16s16 7.163 16 16z"></path>
<path fill="#00af8f" style="fill: var(--color1, #00af8f)" d="M13.714 21.714l5.714-5.714-5.714-5.714z"></path>
<path fill="none" stroke="#fff" style="stroke: var(--color2, #fff)" stroke-linejoin="round" stroke-linecap="round" stroke-miterlimit="4" stroke-width="1.7143" d="M13.714 21.714l5.714-5.714-5.714-5.714"></path>
</symbol>
<symbol id="icon-button-left" viewBox="0 0 32 32">
<path fill="#00af8f" style="fill: var(--color1, #00af8f)" d="M32 16c0 8.837-7.163 16-16 16s-16-7.163-16-16c0-8.837 7.163-16 16-16s16 7.163 16 16z"></path>
<path fill="#00af8f" style="fill: var(--color1, #00af8f)" d="M18.286 10.286l-5.714 5.714 5.714 5.714z"></path>
<path fill="none" stroke="#fff" style="stroke: var(--color2, #fff)" stroke-linejoin="round" stroke-linecap="round" stroke-miterlimit="4" stroke-width="1.7143" d="M18.286 10.286l-5.714 5.714 5.714 5.714"></path>
</symbol>
<symbol id="icon-basket" viewBox="0 0 34 32">
<path fill="#fff" style="fill: var(--color2, #fff)" d="M33.684 8.421c-0.121-0.071-0.266-0.113-0.421-0.113s-0.3 0.042-0.425 0.115l0.004-0.002h-22.737l-1.684-5.895c-0.842-2.526-2.526-2.526-2.526-2.526h-5.053l-0.842 0.842 0.842 0.842h5.053l0.842 1.684 5.895 21.053h16l5.053-15.158v-0.842zM26.947 22.737h-12.632l-3.368-12.632h20.211l-4.211 12.632zM24.421 26.947c-0.842 0-2.526 0.842-2.526 2.526s1.684 2.526 2.526 2.526c1.684 0 3.368-0.842 3.368-2.526s-1.684-2.526-3.368-2.526zM15.158 26.947c-1.684 0-2.526 0.842-2.526 2.526s0.842 2.526 2.526 2.526 2.526-0.842 2.526-2.526-0.842-2.526-2.526-2.526z"></path>
</symbol>
<symbol id="icon-favorite-light" viewBox="0 0 36 32">
<path fill="#fff" style="fill: var(--color2, #fff)" d="M26 0c-3 0-6 1-8 4-2-3-5-4-8-4s-5 1-7 3-3 5-3 7c0 12 17 21 17 22 0 0.552 0.448 1 1 1s1-0.448 1-1v0c0-1 17-10 17-22 0-2-1-5-3-7s-4-3-7-3zM18 29c-3-2-15-10-15-19 0-2 0-4 2-5 1-2 3-2 5-2 3 0 6 1 7 4v1c0 0.552 0.448 1 1 1s1-0.448 1-1v0-1c1-3 4-4 7-4 2 0 4 0 5 2 2 1 2 3 2 5 0 9-12 17-15 19z"></path>
</symbol>
<symbol id="icon-search" viewBox="0 0 32 32">
<path stroke-linejoin="round" stroke-linecap="round" stroke-miterlimit="4" stroke-width="3.2" d="M30.4 30.4l-9.6-9.6M1.6 12.8c-0.022 0.244-0.035 0.527-0.035 0.814 0 2.855 1.246 5.419 3.225 7.178l0.010 0.009c2.019 1.979 4.786 3.201 7.84 3.201 0.056 0 0.113-0 0.169-0.001l-0.008 0c0.048 0.001 0.104 0.001 0.16 0.001 3.053 0 5.821-1.222 7.841-3.203l-0.002 0.002c1.979-2.018 3.201-4.786 3.201-7.84 0-0.056-0-0.113-0.001-0.169l0 0.008c0.022-0.244 0.035-0.527 0.035-0.814 0-2.855-1.246-5.419-3.225-7.178l-0.010-0.009c-2.018-1.979-4.786-3.201-7.84-3.201-0.056 0-0.113 0-0.169 0.001l0.008-0c-0.048-0.001-0.104-0.001-0.16-0.001-3.053 0-5.821 1.222-7.841 3.203l0.002-0.002c-1.979 2.019-3.201 4.786-3.201 7.84 0 0.056 0 0.113 0.001 0.169l-0-0.008z"></path>
</symbol>
<symbol id="icon-menu" viewBox="0 0 43 32">
<path fill="#fff" style="fill: var(--color2, #fff)" d="M2.667 2.667v0zM2.667 16h37.333zM2.667 29.333v0z"></path>
<path fill="none" stroke="#fff" style="stroke: var(--color2, #fff)" stroke-linejoin="miter" stroke-linecap="round" stroke-miterlimit="10" stroke-width="5.3333" d="M2.667 2.667h37.333M2.667 16h37.333M2.667 29.333h37.333"></path>
</symbol>
<symbol id="icon-favorite-dark" viewBox="0 0 37 32">
<path d="M26.627 0c-3.265 0-6.124 1.48-7.906 3.983-1.782-2.502-4.641-3.983-7.906-3.983-2.599 0.003-5.091 1.093-6.929 3.031s-2.872 4.565-2.875 7.305c0 11.669 16.412 21.115 17.11 21.505 0.184 0.105 0.39 0.159 0.599 0.159s0.415-0.055 0.599-0.159c0.699-0.39 17.11-9.836 17.11-21.505-0.003-2.74-1.037-5.367-2.875-7.305s-4.33-3.028-6.929-3.031zM18.72 29.14c-2.887-1.774-15.18-9.854-15.18-18.805 0.002-2.033 0.77-3.982 2.133-5.42s3.212-2.246 5.14-2.249c3.075 0 5.658 1.727 6.736 4.501 0.095 0.245 0.257 0.454 0.466 0.601s0.453 0.226 0.704 0.226 0.496-0.079 0.704-0.226c0.208-0.147 0.37-0.356 0.466-0.601 1.078-2.779 3.661-4.501 6.736-4.501 1.928 0.003 3.777 0.811 5.14 2.249s2.131 3.386 2.133 5.42c0 8.937-12.296 17.029-15.18 18.805z"></path>
</symbol>
</defs>
</svg>
